# xmcd CD database file
#
# Track frame offsets:
#	150
#	8818
#	15884
#	22918
#	26693
#	39265
#	47508
#	60114
#	67755
#	71072
#	77877
#	94534
#	105080
#	114482
#	118627
#	124933
#	129434
#	146402
#	162709
#	175596
#
# Disc length: 2487 seconds
#
# Revision: 1
# Processed by: cddbd v1.5.2PL0 Copyright (c) Steve Scherf et al.
# Submitted via: jetAudio 5
#
DISCID=e909b514
DTITLE=Tom Ball - Dropped D Tuning
DYEAR=1900
DGENRE=
TTITLE0=Introduction
TTITLE1=John Hardy (Desparate Man Blues)
TTITLE2=Rake And Ramblin' Boy
TTITLE3=Stack O' Lee
TTITLE4=Comin' In On A Wing And A Prayer
TTITLE5=Face To Face That I Shall Know Him
TTITLE6=Great Dreams Of Heaven
TTITLE7=Hungry Wolf
TTITLE8=Chump Man Blues
TTITLE9=One Way Gal
TTITLE10=Danny Boy
TTITLE11=Maria Elena
TTITLE12=Carribean Gospel Tune
TTITLE13='Bout A Spoonful
TTITLE14=Big Bill Style Blues
TTITLE15=Unknown Title (Folk Song in A/B)
TTITLE16=Berceuse
TTITLE17=Julia Florida
TTITLE18=La Paloma
TTITLE19=Bad Feeling Blues
EXTD=
EXTT0=
EXTT1=
EXTT2=
EXTT3=
EXTT4=
EXTT5=
EXTT6=
EXTT7=
EXTT8=
EXTT9=
EXTT10=
EXTT11=
EXTT12=
EXTT13=
EXTT14=
EXTT15=
EXTT16=
EXTT17=
EXTT18=
EXTT19=
PLAYORDER=
